<svg width="250" height="64" viewBox="0 0 250 64" fill="none" xmlns="http://www.w3.org/2000/svg">
<path d="M73.856 26.2042V28.2594C72.7953 26.9334 71.0053 25.7732 68.6517 25.7732C63.7458 25.7732 60 29.6848 60 34.4581C60 39.0326 63.8784 43.3087 68.6517 43.3087C71.0053 43.3087 72.7953 42.1817 73.856 40.8558V42.8778H79.889V26.2042H73.856ZM74.1212 35.0879C73.7566 37.0768 72.2318 38.3365 70.2429 38.3365C67.7236 38.3365 66.2319 36.6128 66.2319 34.4581C66.2319 32.1046 67.591 30.7455 70.2429 30.7455C72.2318 30.7455 73.7566 32.0383 74.1212 34.0272V35.0879Z" fill="#F24545"/>
<path d="M94.2979 25.7732C91.9446 25.7732 90.1546 26.9003 89.0607 28.2262V26.2042H83.1934V42.8778H89.2264V33.994C89.5579 32.0051 90.7181 30.7455 92.4749 30.7455C94.4309 30.7455 94.9609 31.5411 94.9609 33.8283V42.8778H100.994V33.8283C100.994 28.6903 99.0049 25.7732 94.2979 25.7732Z" fill="#F24545"/>
<path d="M111.96 31.0106H116.767V26.2041H111.96V19.6738H105.927V26.2041H103.01V31.0106H105.927V42.8777H111.96V31.0106Z" fill="#F24545"/>
<path d="M124.699 30.9775C124.699 30.4803 125.064 30.2483 126.655 30.2483C128.18 30.2483 129.639 30.6129 131.064 31.4416L133.02 27.497C131.097 26.3368 129.108 25.7732 126.257 25.7732C122.147 25.7732 118.567 27.0329 118.567 31.0107C118.567 33.8614 120.788 35.1211 123.274 36.0161C126.058 37.0105 126.92 37.3752 126.92 38.1044C126.92 38.5685 126.456 38.8006 124.799 38.8006C123.44 38.8006 121.186 38.1376 119.628 37.2426L117.805 41.4524C119.926 42.6458 122.18 43.3087 125.396 43.3087C129.705 43.3087 133.053 42.1817 133.053 37.9718C133.053 34.9553 130.931 33.762 127.882 32.7344C125.23 31.8394 124.699 31.6074 124.699 30.9775Z" fill="#F24545"/>
<path d="M143.425 31.0106H148.232V26.2041H143.425V19.6738H137.392V26.2041H134.475V31.0106H137.392V42.8777H143.425V31.0106Z" fill="#F24545"/>
<path d="M163.428 26.2042V28.2594C162.367 26.9334 160.577 25.7732 158.224 25.7732C153.318 25.7732 149.572 29.6848 149.572 34.4581C149.572 39.0326 153.45 43.3087 158.224 43.3087C160.577 43.3087 162.367 42.1817 163.428 40.8558V42.8778H169.461V26.2042H163.428ZM163.693 35.0879C163.328 37.0768 161.804 38.3365 159.815 38.3365C157.295 38.3365 155.804 36.6128 155.804 34.4581C155.804 32.1046 157.163 30.7455 159.815 30.7455C161.804 30.7455 163.328 32.0383 163.693 34.0272V35.0879Z" fill="#F24545"/>
<path d="M182.146 38.3365C179.959 38.3365 178.334 36.8779 178.334 34.4913C178.367 32.0051 179.594 30.7455 181.914 30.7455C183.34 30.7455 184.997 31.0438 186.489 31.6737V26.6351C184.964 26.0716 183.737 25.7732 181.914 25.7732C176.743 25.7732 172.102 29.2207 172.102 34.4913C172.102 39.6624 176.71 43.3087 181.914 43.3087C183.539 43.3087 185.13 43.0767 186.489 42.6126V37.5409C184.699 38.2039 183.406 38.3365 182.146 38.3365Z" fill="#F24545"/>
<path d="M207.804 42.8778L198.29 33.2648L207.307 26.2042H199.716L195.274 29.6848V15H189.307V42.8778H195.274V37.6735L200.312 42.8778H207.804Z" fill="#F24545"/>
<path d="M213.516 36.2812C211.196 36.2812 209.572 37.6734 209.572 39.7949C209.572 41.9164 211.196 43.3087 213.516 43.3087C215.87 43.3087 217.494 41.9164 217.494 39.7949C217.494 37.6734 215.87 36.2812 213.516 36.2812Z" fill="#F24545"/>
<path d="M220.805 26.2041V42.8777H226.838V26.2041H220.805ZM223.821 17.3203C221.733 17.3203 220.34 18.6462 220.34 20.5357C220.34 22.392 221.733 23.7511 223.821 23.7511C225.909 23.7511 227.302 22.392 227.302 20.5357C227.302 18.6462 225.909 17.3203 223.821 17.3203Z" fill="#F24545"/>
<path d="M239.607 25.7732C234.403 25.7732 229.497 29.4527 229.497 34.5244C229.497 39.6293 234.403 43.3087 239.607 43.3087C244.811 43.3087 249.717 39.6293 249.717 34.5244C249.717 29.4527 244.811 25.7732 239.607 25.7732ZM239.607 38.3365C237.287 38.3365 235.729 36.8448 235.729 34.5244C235.729 32.204 237.287 30.7455 239.607 30.7455C241.928 30.7455 243.486 32.204 243.486 34.5244C243.486 36.8448 241.928 38.3365 239.607 38.3365Z" fill="#F24545"/>
<path fill-rule="evenodd" clip-rule="evenodd" d="M23.9927 60.2346C22.4612 60.2594 20.2643 59.0172 20.2643 59.0172C15.662 56.716 6.6673 47.7666 5.56068 36.4238C4.48714 25.4201 10.1978 14.6843 23.8506 14.6375L23.8716 14.6374C23.8799 14.6374 23.8883 14.6374 23.8966 14.6374L23.9402 14.6373C37.593 14.6841 43.3036 25.4201 42.2301 36.4238C41.1235 47.7666 32.1288 56.716 27.5265 59.0172C27.5265 59.0172 25.4521 60.2111 23.9927 60.2346Z" fill="#001835"/>
<path fill-rule="evenodd" clip-rule="evenodd" d="M11.5072 8.09369C9.69933 7.00843 7.39184 5.66203 5.38778 4.57757C4.37055 4.02712 3.43667 3.54697 2.68836 3.20316C2.31374 3.03104 1.99182 2.89597 1.73291 2.8037C1.45854 2.70593 1.30192 2.67387 1.23974 2.67186C0.58659 2.65079 0.240963 2.2323 0.100632 1.8652C-0.0464636 1.4804 -0.0356919 1.01172 0.155375 0.646405C0.251637 0.462353 0.404813 0.283815 0.637497 0.164495C0.881761 0.0392359 1.1817 -0.00387156 1.50818 0.0509868C1.82125 0.103595 2.14489 0.243186 2.47957 0.461396C2.81667 0.681191 3.18356 0.992908 3.58251 1.41246C6.03026 3.98658 9.83823 5.9442 11.4264 6.59584L11.4857 6.6202L11.5288 6.65854C11.6134 6.73393 11.7347 6.8291 11.8799 6.92527C12.085 6.85774 12.3161 6.84611 12.5204 6.85916C12.8432 6.87977 13.1862 6.96515 13.4872 7.08257C13.7875 7.19969 14.0753 7.36012 14.2707 7.54847C14.464 7.73478 14.6046 7.99012 14.4688 8.2588L14.4676 8.26174L14.4662 8.26576C14.4646 8.27069 14.4627 8.27763 14.4609 8.28689C14.4573 8.30568 14.4544 8.33086 14.4535 8.36332C14.4516 8.42868 14.4577 8.51366 14.473 8.61881C14.5038 8.82896 14.5689 9.10105 14.6635 9.42346C14.8523 10.0673 15.1521 10.8904 15.5037 11.7777C16.2066 13.5512 17.11 15.5641 17.7276 16.8763L17.9567 17.363L15.4741 16.8056L15.8217 16.5043C15.9146 16.4238 15.9516 16.2604 15.8803 16.0107C15.8135 15.7767 15.6715 15.5403 15.5623 15.398L15.5302 15.3561L15.5206 15.3086C15.2989 14.2032 14.3269 11.396 12.2377 9.09282C11.8823 8.70102 11.6445 8.37064 11.5072 8.09369Z" fill="#001835"/>
<path d="M36.4495 8.0661C38.2574 6.98084 40.5649 5.63444 42.5689 4.54998C43.5861 3.99953 44.52 3.51939 45.2683 3.17558C45.643 3.00346 45.9649 2.86838 46.2238 2.77612C46.4982 2.67834 46.6548 2.64628 46.717 2.64427C47.3701 2.6232 47.7157 2.20471 47.8561 1.83761C48.0032 1.45281 47.9924 0.984129 47.8013 0.618817C47.7051 0.434765 47.5519 0.256227 47.3192 0.136907C47.0749 0.011648 46.775 -0.0314595 46.4485 0.0233989C46.1354 0.0760067 45.8118 0.215598 45.4771 0.433808C45.14 0.653603 44.7731 0.96532 44.3742 1.38487C41.9264 3.95899 38.1185 5.91661 36.5303 6.56826L36.4709 6.59262L36.4279 6.63096C36.3433 6.70635 36.2219 6.80151 36.0768 6.89768C35.8717 6.83015 35.6406 6.81852 35.4363 6.83157C35.1135 6.85218 34.7705 6.93757 34.4695 7.05498C34.1692 7.17211 33.8814 7.33253 33.686 7.52088C33.4927 7.7072 33.352 7.96253 33.4879 8.23121C33.4879 8.23121 33.4895 8.23511 33.4905 8.23817C33.4921 8.2431 33.4939 8.25004 33.4958 8.2593C33.4994 8.27809 33.5023 8.30327 33.5032 8.33573C33.5051 8.4011 33.499 8.48607 33.4836 8.59122C33.4529 8.80138 33.3878 9.07347 33.2932 9.39588C33.1044 10.0397 32.8046 10.8628 32.453 11.7501C31.7501 13.5236 30.8467 15.5365 30.2291 16.8487L30 17.3354L32.4826 16.778L32.135 16.4767C32.0421 16.3962 32.0051 16.2328 32.0764 15.9831C32.1432 15.7491 32.2852 15.5127 32.3944 15.3704L32.4265 15.3285L32.4361 15.281C32.6578 14.1756 33.6298 11.3684 35.719 9.06523C36.0744 8.67343 36.3122 8.34305 36.4495 8.0661Z" fill="#001835"/>
<path fill-rule="evenodd" clip-rule="evenodd" d="M14.9493 51.5925C15.8561 52.4108 16.7964 53.2592 17.6653 54.09C18.0662 54.4734 18.5677 54.9666 18.9426 55.416C18.9565 55.4327 18.9738 55.4499 18.9915 55.4675C19.0465 55.522 19.1056 55.5808 19.0837 55.6451C19.0777 55.6625 19.0581 55.6687 19.0389 55.6747C19.0311 55.6772 19.0235 55.6796 19.0168 55.6827C18.9445 55.7165 18.8934 55.7375 18.8513 55.7548C18.7326 55.8036 18.686 55.8227 18.4395 56.017C17.4 56.8362 16.6921 57.9501 16.1263 59.1365C16.0945 59.2031 16.0667 59.2715 16.0388 59.34C16.0002 59.4348 15.9616 59.5296 15.9128 59.6192C15.9118 59.6209 15.9109 59.6226 15.91 59.6244C15.8865 59.6676 15.8538 59.7279 15.8069 59.7225C15.714 59.7119 15.6474 59.4586 15.6047 59.2962C15.5911 59.2446 15.58 59.2022 15.5712 59.1797C15.4871 58.9651 15.4727 59.1029 15.4581 59.243C15.4563 59.2609 15.4544 59.2789 15.4524 59.2962C15.3407 60.2479 15.2991 61.2154 15.4746 62.1622C15.5656 62.6532 15.7686 63.1607 16.0093 63.6008C16.0482 63.6719 16.0395 63.6856 15.9313 63.6309C15.1716 63.2466 14.6357 62.3696 14.2549 61.642C13.6831 60.5493 13.4715 59.4025 13.3972 58.1787C13.3022 56.6133 13.2919 54.9845 13.5142 53.4289C13.622 52.674 13.8959 52.0332 14.2085 51.3555C14.2235 51.323 14.2379 51.2861 14.2526 51.2482C14.2802 51.1775 14.3091 51.1033 14.3459 51.0475C14.5446 51.2273 14.7461 51.4092 14.9493 51.5925ZM32.967 51.5926C32.0602 52.4108 31.1199 53.2592 30.251 54.0901C29.8501 54.4734 29.3486 54.9666 28.9737 55.416C28.9598 55.4328 28.9425 55.4499 28.9248 55.4675C28.8698 55.522 28.8107 55.5808 28.8326 55.6451C28.8386 55.6625 28.8582 55.6687 28.8774 55.6747C28.8852 55.6772 28.8928 55.6796 28.8995 55.6827C28.9718 55.7166 29.0229 55.7376 29.065 55.7549C29.1837 55.8036 29.2303 55.8227 29.4768 56.017C30.5163 56.8362 31.2242 57.9502 31.79 59.1366C31.8218 59.2031 31.8496 59.2716 31.8775 59.34C31.9161 59.4348 31.9547 59.5296 32.0035 59.6192L32.0063 59.6244C32.0298 59.6676 32.0625 59.7279 32.1094 59.7225C32.2023 59.7119 32.2689 59.4586 32.3116 59.2962C32.3252 59.2447 32.3363 59.2023 32.3451 59.1798C32.4292 58.9651 32.4436 59.103 32.4582 59.243C32.4601 59.261 32.4619 59.2789 32.464 59.2962C32.5756 60.2479 32.6172 61.2154 32.4417 62.1622C32.3507 62.6533 32.1477 63.1607 31.907 63.6009C31.8681 63.672 31.8768 63.6856 31.985 63.6309C32.7447 63.2466 33.2806 62.3696 33.6614 61.642C34.2332 60.5494 34.4448 59.4025 34.5191 58.1787C34.6141 56.6134 34.6244 54.9845 34.4021 53.429C34.2943 52.674 34.0205 52.0333 33.7078 51.3555C33.6928 51.323 33.6784 51.2861 33.6637 51.2482C33.6361 51.1775 33.6072 51.1034 33.5704 51.0475C33.3717 51.2273 33.1702 51.4092 32.967 51.5926Z" fill="url(#paint0_linear)"/>
<path d="M19 34C19 39.5228 15.4183 44 11 44C6.58172 44 3 39.5228 3 34C3 28.4772 6.58172 24 11 24C15.4183 24 19 28.4772 19 34Z" fill="#F24545"/>
<path fill-rule="evenodd" clip-rule="evenodd" d="M10.8981 43.8466C14.8209 43.8466 18.5266 39.7158 18.5266 33.8939C18.5266 28.0721 14.8209 23.9413 10.8981 23.9413C6.97537 23.9413 3.26967 28.0721 3.26967 33.8939C3.26967 39.7158 6.97537 43.8466 10.8981 43.8466ZM10.8981 45.2935C15.9103 45.2935 19.9735 40.1897 19.9735 33.8939C19.9735 27.5981 15.9103 22.4944 10.8981 22.4944C5.88594 22.4944 1.82275 27.5981 1.82275 33.8939C1.82275 40.1897 5.88594 45.2935 10.8981 45.2935Z" fill="#001835"/>
<path d="M45 34C45 39.5228 41.4183 44 37 44C32.5817 44 29 39.5228 29 34C29 28.4772 32.5817 24 37 24C41.4183 24 45 28.4772 45 34Z" fill="#F24545"/>
<path fill-rule="evenodd" clip-rule="evenodd" d="M37.1389 43.8472C41.0616 43.8472 44.7673 39.7164 44.7673 33.8946C44.7673 28.0727 41.0616 23.9419 37.1389 23.9419C33.2161 23.9419 29.5104 28.0727 29.5104 33.8946C29.5104 39.7164 33.2161 43.8472 37.1389 43.8472ZM37.1389 45.2941C42.1511 45.2941 46.2142 40.1904 46.2142 33.8946C46.2142 27.5988 42.1511 22.495 37.1389 22.495C32.1267 22.495 28.0635 27.5988 28.0635 33.8946C28.0635 40.1904 32.1267 45.2941 37.1389 45.2941Z" fill="#001835"/>
<defs>
<linearGradient id="paint0_linear" x1="31.7055" y1="51.0475" x2="31.7055" y2="63.6645" gradientUnits="userSpaceOnUse">
<stop stop-color="#082D59"/>
<stop offset="1" stop-color="#001835"/>
</linearGradient>
</defs>
</svg>
